<?xml version="1.0" encoding="utf-8"?>
<!-- Generator: Adobe Illustrator 25.1.0, SVG Export Plug-In . SVG Version: 6.00 Build 0)  -->
<svg version="1.1" id="Layer_1" xmlns="http://www.w3.org/2000/svg" xmlns:xlink="http://www.w3.org/1999/xlink" x="0px" y="0px"
	 viewBox="0 0 100 100" style="enable-background:new 0 0 100 100;" xml:space="preserve">
<style type="text/css">
	.st0{clip-path:url(#SVGID_2_);}
	.st1{fill:#FFFFFF;}
	.st2{fill:#72D3FF;}
</style>
<g>
	<defs>
		<path id="SVGID_1_" d="M10,0h80c5.5,0,10,4.5,10,10v80c0,5.5-4.5,10-10,10H10c-5.5,0-10-4.5-10-10V10C0,4.5,4.5,0,10,0z"/>
	</defs>
	<clipPath id="SVGID_2_">
		<use xlink:href="#SVGID_1_"  style="overflow:visible;"/>
	</clipPath>
	<g class="st0">
		<path class="st1" d="M10,0h80c5.5,0,10,4.5,10,10v80c0,5.5-4.5,10-10,10H10c-5.5,0-10-4.5-10-10V10C0,4.5,4.5,0,10,0z"/>
		<path class="st2" d="M77.7,70.6h12.9v10.4H77.7V70.6z"/>
		<g>
			<path d="M74.7,29.5v50.1H59.1v-25l-7.7,25H37.9l-7.7-25v25H14.5V29.5h19.2l11,30.1l10.7-30.1H74.7z"/>
		</g>
	</g>
</g>
</svg>
